PathFileType	4	(X/Y/Z)	1H_rest_fast_left.trc
DataRate	CameraRate	NumFrames	NumMarkers	Units	OrigDataRate	OrigDataStartFrame	OrigNumFrames
250.00	250.00	7	18	mm	250.00	20711	27614
Frame#	Time	c7	r_should	l_should	clavicle	r_upa	r_elb_l	r_elb_m	r_low	r_wri_l	r_wri_m	r_met	l_upa	l_elb_l	l_elb_m	l_low	l_wri_l	l_wri_m	l_met
	X1	Y1	Z1	X2	Y2	Z2	X3	Y3	Z3	X4	Y4	Z4	X5	Y5	Z5	X6	Y6	Z6	X7	Y7	Z7	X8	Y8	Z8	X9	Y9	Z9	X10	Y10	Z10	X11	Y11	Z11	X12	Y12	Z12	X13	Y13	Z13	X14	Y14	Z14	X15	Y15	Z15	X16	Y16	Z16	X17	Y17	Z17	X18	Y18	Z18
20711	82.84000	628.69952	1420.48438	240.16118	674.93250	1363.91663	401.22662	695.14911	1370.58740	82.03340	758.00787	1280.51343	241.88356	666.86182	1157.30884	475.97763	660.90979	1068.42468	498.03763	615.14374	1032.79468	427.75055	716.74542	893.45343	489.30264	744.53925	829.09778	462.78601	678.95233	806.57922	487.99326	782.63892	754.41760	493.72794	709.07635	1186.88867	2.10443	717.47711	1083.23083	-7.07954	654.23364	1048.45569	34.44388	791.43945	960.12158	52.70469	823.40167	919.41583	117.68052	780.24792	866.35242	92.25356	887.76172	863.20740	131.11179
20712	82.84400	628.62421	1420.46899	240.21208	674.83051	1363.88989	401.27682	695.06207	1370.63123	82.09969	757.94934	1280.51880	241.91766	666.73071	1157.27563	476.01904	660.77197	1068.39429	498.07913	615.03003	1032.75940	427.78439	716.66339	893.45844	489.35519	744.46960	829.10632	462.84802	678.86438	806.54517	488.03769	782.56708	754.41351	493.80350	709.06378	1187.01868	2.05882	717.44397	1083.48926	-7.17079	654.27271	1048.65454	34.26514	791.57501	961.00964	53.04914	823.18939	920.65771	118.62640	781.00000	867.57373	93.06769	888.51001	865.04907	132.08180
20713	82.84800	628.54266	1420.45508	240.26202	674.73090	1363.86780	401.31992	694.97308	1370.68152	82.16329	757.88873	1280.51990	241.95598	666.62256	1157.27466	476.07538	660.67426	1068.39746	498.13406	614.92822	1032.74756	427.84021	716.57501	893.46265	489.41653	744.39648	829.11407	462.91354	678.78662	806.54010	488.12872	782.50970	754.44183	493.89886	709.05322	1187.15930	2.01726	717.41364	1083.74548	-7.26505	654.33142	1048.88403	34.10220	791.90881	962.03491	53.42062	823.46454	922.06403	119.28520	781.75836	868.79608	93.89660	889.26392	866.90186	133.07103
20714	82.85200	628.46289	1420.44861	240.32112	674.64197	1363.85522	401.36462	694.88495	1370.74097	82.23216	757.81873	1280.51904	241.99232	666.53235	1157.29041	476.13861	660.58386	1068.41150	498.19943	614.84210	1032.75110	427.89835	716.48145	893.46863	489.48370	744.32251	829.12024	462.98962	678.71704	806.58264	488.25064	782.46820	754.50018	494.00800	709.04578	1187.30212	1.96983	717.39447	1084.00134	-7.35760	654.41333	1049.14380	33.94800	792.28339	963.07764	53.79004	823.83466	923.48755	119.86858	782.52386	870.03149	94.73145	889.98633	868.75507	134.05872
20715	82.85600	628.38367	1420.45398	240.38356	674.55914	1363.84033	401.41190	694.80902	1370.80884	82.29446	757.75128	1280.52222	242.03102	666.44305	1157.30762	476.20444	660.48969	1068.43347	498.26398	614.76715	1032.75952	427.95227	716.38654	893.47235	489.55774	744.24213	829.12628	463.06985	678.64941	806.64569	488.37643	782.42572	754.55804	494.12170	709.04327	1187.45093	1.92536	717.39142	1084.26270	-7.44732	654.49982	1049.41919	33.78284	792.65649	964.11835	54.14565	824.26093	924.94946	120.40501	783.28680	871.27258	95.57371	890.72278	870.61047	135.05576
20716	82.86000	628.30353	1420.46240	240.43694	674.47754	1363.83093	401.45496	694.73737	1370.88379	82.34589	757.67737	1280.52515	242.07045	666.34509	1157.32031	476.25919	660.38049	1068.44592	498.31168	614.68628	1032.77112	427.98932	716.28418	893.47321	489.63898	744.16022	829.12708	463.15921	678.57263	806.69666	488.47415	782.36426	754.59094	494.22845	709.05109	1187.60364	1.87748	717.40051	1084.53247	-7.53689	654.56067	1049.68652	33.59264	793.03271	965.17456	54.50732	824.68884	926.39008	120.89851	784.05389	872.51184	96.40206	891.45636	872.47064	136.02289
20717	82.86400	628.22638	1420.47998	240.49106	674.39459	1363.83105	401.50137	694.66248	1370.96082	82.39594	757.60522	1280.52759	242.12086	666.23047	1157.31506	476.29166	660.26398	1068.44287	498.35052	614.59747	1032.77490	428.00900	716.18390	893.47272	489.72308	744.07281	829.12982	463.25623	678.48334	806.71088	488.51331	782.28955	754.60852	494.32318	709.06445	1187.75940	1.83302	717.41223	1084.80530	-7.62856	654.60541	1049.93298	33.38049	793.41248	966.22845	54.88396	825.24927	928.01294	121.45712	784.81171	873.78491	97.21493	892.17706	874.34100	136.99960
